<svg xmlns="http://www.w3.org/2000/svg" xmlns:xlink="http://www.w3.org/1999/xlink" width="500" zoomAndPan="magnify" viewBox="0 0 375 374.999991" height="500" preserveAspectRatio="xMidYMid meet" version="1.0"><defs><g/></defs><g fill="#ffffff" fill-opacity="1"><g transform="translate(49.292249, 299.069004)"><g><path d="M 104.796875 -67.34375 L 195.796875 -67.34375 C 198.203125 -67.34375 200.28125 -66.46875 202.03125 -64.71875 C 203.789062 -62.96875 204.671875 -60.882812 204.671875 -58.46875 L 204.671875 -8.875 C 204.671875 -6.457031 203.789062 -4.375 202.03125 -2.625 C 200.28125 -0.875 198.203125 0 195.796875 0 L 30.21875 0 C 27.8125 0 25.734375 -0.875 23.984375 -2.625 C 22.234375 -4.375 21.359375 -6.457031 21.359375 -8.875 L 21.359375 -221.09375 C 21.359375 -223.5 22.234375 -225.578125 23.984375 -227.328125 C 25.734375 -229.078125 27.8125 -229.953125 30.21875 -229.953125 L 95.921875 -229.953125 C 98.335938 -229.953125 100.421875 -229.078125 102.171875 -227.328125 C 103.921875 -225.578125 104.796875 -223.5 104.796875 -221.09375 Z M 104.796875 -67.34375 "/></g></g></g><g fill="#ffffff" fill-opacity="1"><g transform="translate(149.134561, 228.625547)"><g><path d="M 101.234375 -100.75 L 166.890625 -100.75 C 168.640625 -100.75 170.148438 -100.113281 171.421875 -98.84375 C 172.691406 -97.570312 173.328125 -96.0625 173.328125 -94.3125 L 173.328125 -63.265625 C 173.328125 -42.253906 165.847656 -26.054688 150.890625 -14.671875 C 135.929688 -3.296875 115.992188 2.390625 91.078125 2.390625 C 66.171875 2.390625 46.554688 -3.140625 32.234375 -14.203125 C 17.910156 -25.265625 10.75 -41.859375 10.75 -63.984375 L 10.75 -104.09375 C 10.75 -125.257812 18.066406 -141.453125 32.703125 -152.671875 C 47.347656 -163.898438 66.882812 -169.515625 91.3125 -169.515625 C 115.75 -169.515625 135.523438 -164.378906 150.640625 -154.109375 C 165.765625 -143.847656 173.328125 -131.234375 173.328125 -116.265625 C 173.328125 -114.835938 172.8125 -113.601562 171.78125 -112.5625 C 170.75 -111.53125 169.515625 -111.015625 168.078125 -111.015625 L 115.3125 -111.015625 C 112.132812 -111.015625 109.828125 -111.890625 108.390625 -113.640625 C 105.210938 -117.785156 102.828125 -120.175781 101.234375 -120.8125 C 97.566406 -122.238281 94.222656 -122.953125 91.203125 -122.953125 C 78.941406 -122.953125 72.8125 -116.984375 72.8125 -105.046875 L 72.8125 -64.46875 C 72.8125 -50.9375 79.335938 -44.171875 92.390625 -44.171875 C 105.765625 -44.171875 112.453125 -49.898438 112.453125 -61.359375 L 101.234375 -61.359375 C 99.484375 -61.359375 97.96875 -61.992188 96.6875 -63.265625 C 95.414062 -64.535156 94.78125 -66.050781 94.78125 -67.8125 L 94.78125 -94.3125 C 94.78125 -96.0625 95.414062 -97.570312 96.6875 -98.84375 C 97.96875 -100.113281 99.484375 -100.75 101.234375 -100.75 Z M 101.234375 -100.75 "/></g></g></g><g fill="#ffffff" fill-opacity="1"><g transform="translate(259.822778, 287.591936)"><g><path d="M 3.359375 -34.28125 C 3.359375 -39.132812 5.367188 -43.082031 9.390625 -46.125 C 13.410156 -49.175781 18.691406 -50.703125 25.234375 -50.703125 C 31.785156 -50.703125 37.144531 -49.101562 41.3125 -45.90625 C 45.476562 -42.71875 47.5625 -39.390625 47.5625 -35.921875 C 47.5625 -35.492188 47.40625 -35.125 47.09375 -34.8125 C 46.78125 -34.5 46.4375 -34.34375 46.0625 -34.34375 L 31.78125 -34.34375 C 30.6875 -34.34375 29.6875 -34.75 28.78125 -35.5625 C 27.875 -36.375 26.660156 -36.78125 25.140625 -36.78125 C 22.847656 -36.78125 21.703125 -36.113281 21.703125 -34.78125 C 21.703125 -34.0625 22.257812 -33.460938 23.375 -32.984375 C 24.5 -32.515625 26.585938 -32.085938 29.640625 -31.703125 C 36.722656 -30.796875 41.773438 -29.140625 44.796875 -26.734375 C 47.828125 -24.335938 49.34375 -20.695312 49.34375 -15.8125 C 49.34375 -10.9375 47.113281 -6.960938 42.65625 -3.890625 C 38.207031 -0.816406 32.390625 0.71875 25.203125 0.71875 C 18.015625 0.71875 12.375 -0.753906 8.28125 -3.703125 C 4.1875 -6.660156 2.140625 -10.257812 2.140625 -14.5 C 2.140625 -14.925781 2.296875 -15.289062 2.609375 -15.59375 C 2.921875 -15.90625 3.289062 -16.0625 3.71875 -16.0625 L 17.28125 -16.0625 C 18.28125 -16.0625 19.382812 -15.582031 20.59375 -14.625 C 21.8125 -13.675781 23.492188 -13.203125 25.640625 -13.203125 C 29.203125 -13.203125 30.984375 -13.867188 30.984375 -15.203125 C 30.984375 -16.066406 30.34375 -16.722656 29.0625 -17.171875 C 27.78125 -17.628906 25.351562 -18.09375 21.78125 -18.5625 C 9.5 -20.1875 3.359375 -25.425781 3.359375 -34.28125 Z M 3.359375 -34.28125 "/></g></g></g></svg>